<?xml version="1.0" encoding="utf-8"?><svg xmlns="http://www.w3.org/2000/svg" xmlns:xlink="http://www.w3.org/1999/xlink"><symbol viewBox="0 0 64 64" id="basic-case" xmlns="http://www.w3.org/2000/svg"><path d="M64 17H41.903C41.55 14.657 39.88 9 32 9s-9.55 5.657-9.903 8H0v38h64V17zm-32-6c6.122 0 7.555 4.064 7.892 6h-15.79c.326-1.936 1.737-6 7.898-6zm30 8v10H2V19h60zM28 31h8v4h-8v-4zM2 53V31h24v6h12v-6h24v22H2z"/></symbol><symbol viewBox="0 0 64 64" id="basic-message-txt" xmlns="http://www.w3.org/2000/svg"><path d="M10 15h44v2H10zm0 10h44v2H10zm0 10h44v2H10z"/><path d="M17 61.174L32.37 48H64V4H0v44h17v13.174zM2 46V6h60v40H31.63L19 56.826V46H2z"/></symbol><symbol viewBox="0 0 64 64" id="basic-todo" xmlns="http://www.w3.org/2000/svg"><path d="M25 23h22v2H25zm0 10h22v2H25zm0 10h22v2H25zm0 10h22v2H25zm-8-30h4v2h-4zm0 10h4v2h-4zm0 10h4v2h-4zm0 10h4v2h-4z"/><path d="M27 0v4h-3.781l-.75 3H9v57h46V7H41.531l-.75-3H37V0H27zm16.281 14l-1.25-5H53v53H11V9h10.969l-1.25 5h22.562zm-4.062-8l1.5 6H23.281l1.5-6H29V2h6v4h4.219z"/></symbol><symbol viewBox="0 0 64 64" id="calendar" xmlns="http://www.w3.org/2000/svg"><g stroke-width="2" stroke-miterlimit="10"><path d="M46 10H18m-6 0H1v48h62V10H52"/><path d="M12 6h6v8h-6zm34 0h6v8h-6zM10 24h10v10H10zm0 18h10v10H10zm34-18h10v10H44zm0 18h10v10H44zM27 24h10v10H27zm0 18h10v10H27z"/></g><path d="M1 18h62"/></symbol><symbol viewBox="0 0 344.96 344.96" id="check" xmlns="http://www.w3.org/2000/svg"><g data-name="Слой 2"><path d="M321.85 86.24l-40-23.11-23.1-40H212.5L172.48 0l-40 23.11H86.24l-23.11 40-40 23.1v46.21L0 172.48l23.11 40v46.21l40 23.11 23.11 40h46.21l40 23.1 40-23.11h46.21l23.11-40 40-23.11V212.5l23.11-40-23.11-40V86.24zM156.91 243.07a16.79 16.79 0 01-23.34 0l-50.45-50.44a16.19 16.19 0 010-22.89l13.35-13.35a16.19 16.19 0 0122.89 0l25.87 25.87 80.34-80.35a16.19 16.19 0 0122.89 0l13.35 13.35a16.19 16.19 0 010 22.89z" data-name="Capa 1"/></g></symbol><symbol viewBox="0 0 320 512" id="facebook-f" xmlns="http://www.w3.org/2000/svg"><path d="M279.14 288l14.22-92.66h-88.91v-60.13c0-25.35 12.42-50.06 52.24-50.06h40.42V6.26S260.43 0 225.36 0c-73.22 0-121.08 44.38-121.08 124.72v70.62H22.89V288h81.39v224h100.17V288z"/></symbol><symbol viewBox="0 0 448 512" id="instagram" xmlns="http://www.w3.org/2000/svg"><path d="M224.1 141c-63.6 0-114.9 51.3-114.9 114.9s51.3 114.9 114.9 114.9S339 319.5 339 255.9 287.7 141 224.1 141zm0 189.6c-41.1 0-74.7-33.5-74.7-74.7s33.5-74.7 74.7-74.7 74.7 33.5 74.7 74.7-33.6 74.7-74.7 74.7zm146.4-194.3c0 14.9-12 26.8-26.8 26.8-14.9 0-26.8-12-26.8-26.8s12-26.8 26.8-26.8 26.8 12 26.8 26.8zm76.1 27.2c-1.7-35.9-9.9-67.7-36.2-93.9-26.2-26.2-58-34.4-93.9-36.2-37-2.1-147.9-2.1-184.9 0-35.8 1.7-67.6 9.9-93.9 36.1s-34.4 58-36.2 93.9c-2.1 37-2.1 147.9 0 184.9 1.7 35.9 9.9 67.7 36.2 93.9s58 34.4 93.9 36.2c37 2.1 147.9 2.1 184.9 0 35.9-1.7 67.7-9.9 93.9-36.2 26.2-26.2 34.4-58 36.2-93.9 2.1-37 2.1-147.8 0-184.8zM398.8 388c-7.8 19.6-22.9 34.7-42.6 42.6-29.5 11.7-99.5 9-132.1 9s-102.7 2.6-132.1-9c-19.6-7.8-34.7-22.9-42.6-42.6-11.7-29.5-9-99.5-9-132.1s-2.6-102.7 9-132.1c7.8-19.6 22.9-34.7 42.6-42.6 29.5-11.7 99.5-9 132.1-9s102.7-2.6 132.1 9c19.6 7.8 34.7 22.9 42.6 42.6 11.7 29.5 9 99.5 9 132.1s2.7 102.7-9 132.1z"/></symbol><symbol viewBox="0 0 141.732 141.732" id="marker" xmlns="http://www.w3.org/2000/svg"><path d="M95.35 50.645c0 13.98-11.389 25.322-25.438 25.322-14.051 0-25.438-11.342-25.438-25.322 0-13.984 11.389-25.322 25.438-25.322C83.964 25.322 95.35 36.66 95.35 50.645m26.393 0C121.743 22.674 98.966 0 70.866 0 42.768 0 19.989 22.674 19.989 50.645c0 12.298 4.408 23.574 11.733 32.345l39.188 56.283 39.761-57.104a50.048 50.048 0 003.916-5.625l.402-.574h-.066a50.245 50.245 0 006.82-25.325"/></symbol><symbol viewBox="0 0 64 64" id="megaphone" xmlns="http://www.w3.org/2000/svg"><path d="M64 54h-3.342l-15.5-12H6.586L0 35.414V22.586L6.586 16h38.572l15.5-12H64v50zm-2.658-2H62V6h-.658l-15.5 12H7.414L2 23.414v11.172L7.414 40h38.428l15.5 12z"/><path d="M18.589 60h-8.051l7.53-19.362 1.864.724L13.462 58h3.949l9.715-17.486 1.748.972zM42 17h2v24h-2zm-7 0h2v24h-2z"/></symbol><symbol viewBox="0 0 320 512" id="odnoklassniki" xmlns="http://www.w3.org/2000/svg"><path d="M275.1 334c-27.4 17.4-65.1 24.3-90 26.9l20.9 20.6 76.3 76.3c27.9 28.6-17.5 73.3-45.7 45.7-19.1-19.4-47.1-47.4-76.3-76.6L84 503.4c-28.2 27.5-73.6-17.6-45.4-45.7 19.4-19.4 47.1-47.4 76.3-76.3l20.6-20.6c-24.6-2.6-62.9-9.1-90.6-26.9-32.6-21-46.9-33.3-34.3-59 7.4-14.6 27.7-26.9 54.6-5.7 0 0 36.3 28.9 94.9 28.9s94.9-28.9 94.9-28.9c26.9-21.1 47.1-8.9 54.6 5.7 12.4 25.7-1.9 38-34.5 59.1zM30.3 129.7C30.3 58 88.6 0 160 0s129.7 58 129.7 129.7c0 71.4-58.3 129.4-129.7 129.4s-129.7-58-129.7-129.4zm66 0c0 35.1 28.6 63.7 63.7 63.7s63.7-28.6 63.7-63.7c0-35.4-28.6-64-63.7-64s-63.7 28.6-63.7 64z"/></symbol><symbol viewBox="0 0 576 512" id="vk" xmlns="http://www.w3.org/2000/svg"><path d="M545 117.7c3.7-12.5 0-21.7-17.8-21.7h-58.9c-15 0-21.9 7.9-25.6 16.7 0 0-30 73.1-72.4 120.5-13.7 13.7-20 18.1-27.5 18.1-3.7 0-9.4-4.4-9.4-16.9V117.7c0-15-4.2-21.7-16.6-21.7h-92.6c-9.4 0-15 7-15 13.5 0 14.2 21.2 17.5 23.4 57.5v86.8c0 19-3.4 22.5-10.9 22.5-20 0-68.6-73.4-97.4-157.4-5.8-16.3-11.5-22.9-26.6-22.9H38.8c-16.8 0-20.2 7.9-20.2 16.7 0 15.6 20 93.1 93.1 195.5C160.4 378.1 229 416 291.4 416c37.5 0 42.1-8.4 42.1-22.9 0-66.8-3.4-73.1 15.4-73.1 8.7 0 23.7 4.4 58.7 38.1 40 40 46.6 57.9 69 57.9h58.9c16.8 0 25.3-8.4 20.4-25-11.2-34.9-86.9-106.7-90.3-111.5-8.7-11.2-6.2-16.2 0-26.2.1-.1 72-101.3 79.4-135.6z"/></symbol><symbol viewBox="0 0 576 512" id="youtube" xmlns="http://www.w3.org/2000/svg"><path d="M549.655 124.083c-6.281-23.65-24.787-42.276-48.284-48.597C458.781 64 288 64 288 64S117.22 64 74.629 75.486c-23.497 6.322-42.003 24.947-48.284 48.597-11.412 42.867-11.412 132.305-11.412 132.305s0 89.438 11.412 132.305c6.281 23.65 24.787 41.5 48.284 47.821C117.22 448 288 448 288 448s170.78 0 213.371-11.486c23.497-6.321 42.003-24.171 48.284-47.821 11.412-42.867 11.412-132.305 11.412-132.305s0-89.438-11.412-132.305zm-317.51 213.508V175.185l142.739 81.205-142.739 81.201z"/></symbol></svg>